<?xml version="1.0" encoding="utf-8"?>
<!-- Generator: Adobe Illustrator 21.1.0, SVG Export Plug-In . SVG Version: 6.00 Build 0)  -->
<svg version="1.1" id="Layer_1" xmlns="http://www.w3.org/2000/svg" xmlns:xlink="http://www.w3.org/1999/xlink" x="0px" y="0px"
	 viewBox="0 0 1280 272.3" style="enable-background:new 0 0 1280 272.3;" xml:space="preserve">
<style type="text/css">
	.st0{fill-rule:evenodd;clip-rule:evenodd;fill:#80C242;}
	.st1{fill:#58595B;}
</style>
<g>
	<g>
		<path class="st0" d="M266.7,143.9c-27.4,15.5-68,36.9-77.3,70.4c-4.9,17.5,0.5,38.4,15.2,49.5c11.1,8.4,25.3,10.2,38.6,7.1
			c49.9-10.5,65.4-58.3,50.5-100c-8.9,5.6-18.3,10.6-27.6,15.6c4.8,48.8-46.3,70.4-65.6,55.8c-19.4-14.7,28.5-42.1,53.5-55.5
			c20.3-10.9,40.1-21.1,58.3-36.1c118.8-98,9.2-205.9-125.9-118.8c6.9,4.8,13.8,10,20.5,15.2c86.8-45.6,136.3,32.6,82.5,81.1
			C282.3,134.7,274.9,139.3,266.7,143.9L266.7,143.9z M275.2,132.5c-14.2-25.6-39.8-55.2-70.3-80c-8-6.3-16.3-12.4-24.6-18.1
			C37.2-60.7-78.1,61.6,66.9,163.1c3.7-9.8,8.4-19.7,13.8-29C15,86.2,66.2-0.9,157.3,47.8c6.4,3,13.2,7.5,18.7,11.4
			c1.8,1.3,3.7,2.6,5.5,4v0c29.6,21.7,56.5,52.1,71.4,82.3C260.3,141.3,267.7,137.3,275.2,132.5L275.2,132.5z M109.7,146.5
			c14-29,39.1-58.2,67.3-79.9c-1.4-1-2.7-1.9-4-2.9c-4.7-3.3-10.6-7.2-16.2-10.1c-20.1,16.5-37.9,35-51.8,53.1
			c-18.4,24.1-41,64.4-41.1,94.6c-0.1,32.1,18,61.6,56,69.6c13.2,3.1,27.4,1.3,38.5-7.1c14.6-11,20-31.9,15.2-49.5
			c-7.4-26.6-37.3-48-60.9-61.4c-4.5,9.9-8.8,22.5-10,30.7c21.7,11.5,81,42.8,59.8,58.8c-19.7,14.9-72.8-8.1-65.2-59.4
			C98.6,173.1,104.2,157.4,109.7,146.5L109.7,146.5z"/>
	</g>
	<g>
		<path class="st1" d="M454.2,74.6c5.9,0,11.5,0.6,16.9,1.9c5.4,1.2,10,3,13.8,5.2v16.5c-5.4-2-10.3-3.6-14.9-4.6
			c-4.5-1-9.1-1.5-13.8-1.5c-5,0-9.9,0.8-14.7,2.4c-4.9,1.6-9.2,4.3-13.1,8c-3.8,3.7-6.9,8.6-9.3,14.7c-2.3,6.1-3.5,13.7-3.5,22.7
			c0,6.6,0.9,12.6,2.6,18.2c1.8,5.6,4.4,10.4,7.8,14.4c3.5,4.1,7.8,7.2,13,9.5c5.2,2.3,11.2,3.4,18.1,3.4c4.9,0,9.9-0.5,15-1.6
			c5-1.1,9.9-2.6,14.7-4.5v16.5c-1.4,0.9-3.4,1.7-5.7,2.6c-2.4,0.8-4.9,1.6-7.8,2.2c-2.8,0.6-5.8,1.2-9,1.5
			c-3.2,0.4-6.3,0.6-9.5,0.6c-8.2,0-16-1.2-23.3-3.7c-7.3-2.5-13.7-6.3-19.2-11.4c-5.5-5.1-9.8-11.6-12.9-19.5
			c-3.2-7.8-4.7-17.2-4.7-27.9c0-8,0.8-15.2,2.5-21.6c1.7-6.4,3.9-12,6.8-16.9c2.9-4.9,6.3-9,10.2-12.4c3.9-3.4,8-6.2,12.4-8.4
			c4.4-2.2,8.9-3.8,13.6-4.7C445.2,75.1,449.8,74.6,454.2,74.6z"/>
		<path class="st1" d="M588.2,186.1h-0.5c-1.6,2.1-3.7,4.1-6.1,6.1c-2.5,2-5.4,3.8-8.6,5.4c-3.2,1.6-6.8,2.8-10.6,3.8
			c-3.8,0.9-7.9,1.4-12.3,1.4c-5.9,0-11.3-0.9-16.2-2.6c-4.9-1.8-9.1-4.3-12.7-7.7c-3.6-3.4-6.3-7.5-8.2-12.4c-2-4.9-3-10.4-3-16.5
			c0-6.1,1.1-11.5,3.3-16.3c2.2-4.8,5.2-8.8,9.2-12.2c3.9-3.3,8.7-5.9,14.2-7.7c5.5-1.8,11.6-2.7,18.3-2.7
			c6.3,0.1,12.2,0.6,17.5,1.7c5.4,1,10.2,2.3,14.3,3.8h0.5v-8.5c0-3.3-0.2-6.3-0.7-8.8c-0.4-2.6-1.2-4.8-2.2-6.8
			c-2.2-4.1-5.8-7.5-10.6-10.2c-4.9-2.7-11.4-4-19.7-4c-6.1,0-11.9,0.6-17.4,1.7c-5.4,1.1-10.8,2.7-16.2,4.8V81.8c2-1,4.5-2,7.2-2.9
			c2.8-0.9,5.7-1.7,8.8-2.3c3.1-0.6,6.3-1.1,9.7-1.5c3.4-0.3,6.8-0.5,10.2-0.5c12.3,0,22.4,2.2,30.2,6.5
			c7.8,4.4,13.4,10.1,16.8,17.3c1.3,2.7,2.2,5.8,2.8,9c0.6,3.3,0.8,6.9,0.8,10.8v81.2h-16.6L588.2,186.1z M587.2,146.1
			c-3.7-1-8-2-13-2.9c-5-0.9-10.5-1.4-16.6-1.5c-8.4,0-15,1.8-19.8,5.4c-4.7,3.6-7.1,9.1-7.1,16.5c0,3.8,0.6,7,1.8,9.9
			c1.2,2.8,2.8,5.1,4.9,7c2.1,1.8,4.5,3.2,7.4,4.1c2.9,0.9,5.9,1.3,9.1,1.3c4.3,0,8.2-0.6,11.9-1.9c3.7-1.2,6.9-2.7,9.8-4.4
			c2.8-1.7,5.3-3.4,7.3-5.1c2-1.7,3.5-3,4.4-4V146.1z"/>
		<path class="st1" d="M748,137.3c0,8.5-0.8,15.9-2.5,22.5c-1.7,6.5-3.9,12.2-6.6,17.1c-2.7,4.9-6,8.9-9.6,12.2
			c-3.7,3.3-7.5,5.9-11.5,7.9c-3.9,2-7.9,3.5-12,4.4c-4.1,0.9-7.9,1.3-11.5,1.3c-7.5,0-13.9-1.2-19.4-3.6c-5.5-2.4-10.4-6-14.8-10.8
			h-0.4v70.8h-19.5V77.8h15l4.2,13.8h0.4c1.1-1.7,2.5-3.4,4.3-5c1.8-1.6,4.1-3.3,7.1-5.2c2.9-1.8,6.5-3.4,10.6-4.8
			c4.1-1.4,8.6-2,13.5-2c6.8,0,13.4,1.2,19.8,3.5c6.4,2.3,12,6,16.9,11c4.9,5,8.8,11.5,11.7,19.4C746.6,116.4,748,126,748,137.3z
			 M727.3,137.5c0-7.1-0.7-13.4-2.3-19.1c-1.5-5.6-3.8-10.4-6.8-14.4c-3-4-6.7-7-11.1-9.2c-4.4-2.1-9.5-3.2-15.2-3.2
			c-4.1,0-7.9,0.6-11.3,1.7c-3.4,1.1-6.5,2.5-9.2,4.2c-2.8,1.7-5.1,3.5-7.1,5.5c-2,2-3.6,3.7-4.8,5.3V172c4.2,4.3,9,7.6,14.4,10.1
			c5.4,2.5,11.2,3.7,17.3,3.7c3.8,0,7.8-0.7,12-2.1c4.2-1.4,8.1-3.9,11.7-7.6c3.6-3.6,6.5-8.6,8.8-14.8
			C726.1,155.1,727.3,147.2,727.3,137.5z"/>
		<path class="st1" d="M780.2,49.5V27.4H800v22.2H780.2z M780.7,199.5V77.8h19.9v121.7H780.7z"/>
		<path class="st1" d="M841.5,199.5V14h19.8v185.5H841.5z"/>
		<path class="st1" d="M902.4,199.5V14h19.9v185.5H902.4z"/>
		<path class="st1" d="M1033.2,186.1h-0.5c-1.6,2.1-3.7,4.1-6.1,6.1c-2.5,2-5.3,3.8-8.6,5.4c-3.3,1.6-6.8,2.8-10.6,3.8
			c-3.8,0.9-8,1.4-12.3,1.4c-5.9,0-11.3-0.9-16.2-2.6c-4.9-1.8-9.2-4.3-12.7-7.7c-3.6-3.4-6.3-7.5-8.3-12.4
			c-2-4.9-2.9-10.4-2.9-16.5c0-6.1,1.1-11.5,3.3-16.3c2.2-4.8,5.2-8.8,9.2-12.2c3.9-3.3,8.6-5.9,14.2-7.7c5.5-1.8,11.6-2.7,18.2-2.7
			c6.3,0.1,12.2,0.6,17.6,1.7c5.4,1,10.2,2.3,14.3,3.8h0.5v-8.5c0-3.3-0.2-6.3-0.6-8.8c-0.4-2.6-1.2-4.8-2.2-6.8
			c-2.2-4.1-5.8-7.5-10.6-10.2c-4.9-2.7-11.4-4-19.7-4c-6.2,0-11.9,0.6-17.4,1.7c-5.4,1.1-10.8,2.7-16.2,4.8V81.8c2-1,4.5-2,7.2-2.9
			c2.8-0.9,5.7-1.7,8.8-2.3c3.1-0.6,6.3-1.1,9.7-1.5c3.4-0.3,6.8-0.5,10.2-0.5c12.3,0,22.4,2.2,30.2,6.5
			c7.8,4.4,13.4,10.1,16.8,17.3c1.3,2.7,2.2,5.8,2.8,9c0.5,3.3,0.8,6.9,0.8,10.8v81.2h-16.7L1033.2,186.1z M1032.1,146.1
			c-3.7-1-8-2-13-2.9c-5-0.9-10.5-1.4-16.6-1.5c-8.4,0-15,1.8-19.8,5.4c-4.8,3.6-7.2,9.1-7.2,16.5c0,3.8,0.6,7,1.8,9.9
			c1.2,2.8,2.8,5.1,4.9,7c2.1,1.8,4.6,3.2,7.4,4.1c2.8,0.9,5.9,1.3,9.1,1.3c4.2,0,8.2-0.6,11.8-1.9c3.7-1.2,6.9-2.7,9.8-4.4
			c2.8-1.7,5.3-3.4,7.3-5.1c2-1.7,3.5-3,4.4-4V146.1z"/>
		<path class="st1" d="M1157.2,94h-1.5c-4.7,0-9.3,0.4-13.8,1.3c-4.5,0.9-8.8,2.2-12.8,3.9c-4,1.8-7.6,3.9-10.8,6.5
			c-3.2,2.6-5.9,5.6-8,9.1v84.8h-19.8V77.8h15.4l3.8,19.3h0.4c2-3.2,4.4-6.1,7.2-8.8c2.9-2.7,6.1-5.1,9.7-7.2
			c3.6-2.1,7.5-3.7,11.8-4.8c4.3-1.1,8.8-1.7,13.4-1.7c0.9,0,1.7,0,2.6,0.1c0.9,0,1.7,0.1,2.4,0.2V94z"/>
		<path class="st1" d="M1162.9,77.8h19.9l37.8,95.4h0.8l38.8-95.4h19.8l-75.4,181.3h-19.7l26-62L1162.9,77.8z"/>
	</g>
</g>
</svg>
